<?xml version="1.0" encoding="UTF-8"?>
<svg width="54px" height="55px" viewBox="0 0 54 55" version="1.1" xmlns="http://www.w3.org/2000/svg" xmlns:xlink="http://www.w3.org/1999/xlink">
    <!-- Generator: Sketch 51.3 (57544) - http://www.bohemiancoding.com/sketch -->
    <title>icon_prototyping</title>
    <desc>Created with Sketch.</desc>
    <defs></defs>
    <g id="Page-1" stroke="none" stroke-width="1" fill="none" fill-rule="evenodd">
        <g id="Artboard-6" transform="translate(-447.000000, -181.000000)" fill-rule="nonzero">
            <g id="icon_prototyping" transform="translate(447.000000, 181.000000)">
                <path d="M26.9594821,42.0525488 C26.9594821,49.1298242 32.7075091,54.8670117 39.7981559,54.8670117 C46.8888026,54.8670117 52.6368296,49.1298242 52.6368296,42.0525488 C49.0792908,38.5017187 43.3115685,38.5017187 39.7541373,42.0525488 L39.8420668,42.0525488 C36.2847433,38.5018262 30.5170209,38.5018262 26.9594821,42.0525488 Z" id="Shape" fill="#F23466"></path>
                <path d="M50.6316714,40.5410156 C50.3786454,47.3957129 44.7324315,52.8754102 37.8028991,52.8754102 C34.765834,52.8754102 31.9757679,51.8222461 29.7775307,50.0626758 C32.1304248,52.9912109 35.7445742,54.8669043 39.7981559,54.8669043 C46.8888026,54.8669043 52.6368296,49.1297168 52.6368296,42.0524414 C52.0263816,41.443252 51.3498519,40.9412695 50.6316714,40.5410156 Z" id="Shape" fill="#000000" opacity="0.1"></path>
                <path d="M18.7655732,25.6253809 C15.7109652,27.5662793 5.29804757,35.118252 2.93277665,49.1624805 C2.41789946,52.2188477 4.79490148,55 7.89998549,55 L15.3506373,55 C17.7033161,55 19.6106434,53.0962695 19.6106434,50.7480273 L19.6106434,26.0870801 C19.6105358,25.6539551 19.1316053,25.3928125 18.7655732,25.6253809 Z" id="Shape" fill="#F9C5B5"></path>
                <path d="M18.8079774,25.6253809 C18.473587,25.8378613 18.0508367,26.1176953 17.5601751,26.4658496 L17.5601751,49.7327832 C17.5601751,51.4880566 16.134469,52.9110742 14.3758792,52.9110742 L5.84951721,52.9110742 C4.99142443,52.9110742 4.18951181,52.6978418 3.48844366,52.3260547 C4.32759447,53.9011816 5.99093623,55 7.94238968,55 L15.3930415,55 C17.7457203,55 19.6530476,53.0962695 19.6530476,50.7480273 L19.6530476,26.0870801 C19.6529399,25.6539551 19.1740094,25.3928125 18.8079774,25.6253809 Z" id="Shape" fill="#000000" opacity="0.1"></path>
                <g id="Group" opacity="0.1" transform="translate(7.318489, 48.769531)" fill="#000000">
                    <path d="M7.6590135,2.8693457 C7.25542038,2.8693457 6.91952328,2.57952148 6.84902901,2.19699219 C6.60515115,1.99879883 5.66677024,1.67030273 4.25214946,1.67030273 C2.83752868,1.67030273 1.8992554,1.99879883 1.65526991,2.19699219 C1.58466802,2.57952148 1.24887854,2.8693457 0.845285425,2.8693457 C0.390355263,2.8693457 0.0215249663,2.50121094 0.0215249663,2.04713867 C0.0215249663,0.650869141 2.14636201,0.0258886719 4.25214946,0.0258886719 C6.35793691,0.0258886719 8.48277395,0.650869141 8.48277395,2.04713867 C8.48277395,2.50121094 8.11405128,2.8693457 7.6590135,2.8693457 Z M6.83525304,2.04713867 C6.83525304,2.04750605 6.83525304,2.04787344 6.83525304,2.04824082 C6.83525304,2.04768975 6.83525304,2.04750605 6.83525304,2.04713867 Z M1.66893826,2.04713867 C1.66893826,2.04750605 1.66893826,2.04787344 1.66893826,2.04824082 C1.66893826,2.04768975 1.66893826,2.04750605 1.66893826,2.04713867 Z" id="Shape"></path>
                </g>
                <g id="Group" transform="translate(7.964238, 0.000000)" fill="#342E30">
                    <path d="M6.26548718,6.55488281 C5.81055702,6.55488281 5.44172672,6.18674805 5.44172672,5.73267578 L5.44172672,0.822207031 C5.44172672,0.368134766 5.81055702,0 6.26548718,0 C6.72041734,0 7.08924764,0.368134766 7.08924764,0.822207031 L7.08924764,5.7327832 C7.08914001,6.18674805 6.72030972,6.55488281 6.26548718,6.55488281 Z" id="Shape"></path>
                    <path d="M9.5041336,6.86436523 C9.38768354,6.86436523 9.26951147,6.83955078 9.15704352,6.78734375 C8.74462517,6.59570312 8.56596795,6.10671875 8.75797065,5.69507812 L10.8998124,1.10290039 C11.0918151,0.691259766 11.581831,0.512832031 11.9941417,0.704580078 C12.4065601,0.896220703 12.5852173,1.38520508 12.3932146,1.7968457 L10.2513728,6.38902344 C10.1116758,6.6884082 9.81452362,6.86436523 9.5041336,6.86436523 Z" id="Shape"></path>
                    <path d="M2.88273111,6.55509766 C2.57223347,6.55509766 2.27508131,6.37914063 2.1354919,6.07964844 L0.137867409,1.79673828 C-0.0541352901,1.38509766 0.124629555,0.896113281 0.536940283,0.704472656 C0.949143387,0.512832031 1.43926687,0.691152344 1.63126957,1.10279297 L3.62889406,5.38570313 C3.82089676,5.79734375 3.64213192,6.28632813 3.22982119,6.47796875 C3.11735324,6.5302832 2.99907355,6.55509766 2.88273111,6.55509766 Z" id="Shape"></path>
                </g>
                <path d="M27.6116886,13.3190234 C27.6116886,13.3190234 21.4466154,22.1117187 13.8415219,22.1117187 C6.23642848,22.1117187 0.071462888,13.3190234 0.071462888,13.3190234 C0.071462888,13.3190234 6.2365361,4.52632812 13.8416296,4.52632812 C21.446723,4.52632812 27.6116886,13.3190234 27.6116886,13.3190234 Z" id="Shape" fill="#E3E3E3"></path>
                <path d="M13.8415219,19.5679687 C8.05765587,19.5679687 3.10745175,14.4829395 1.06785358,12.047041 C0.425656208,12.8139258 0.0712476383,13.3190234 0.0712476383,13.3190234 C0.0712476383,13.3190234 6.23632085,22.1117187 13.8414143,22.1117187 C21.4465078,22.1117187 27.611581,13.3190234 27.611581,13.3190234 C27.611581,13.3190234 27.25728,12.8141406 26.614975,12.047041 C24.5755921,14.4829395 19.625388,19.5679687 13.8415219,19.5679687 Z" id="Shape" fill="#000000" opacity="0.1"></path>
                <path d="M8.88034008,15.636543 C11.6203607,18.3713965 16.0628984,18.3713965 18.802919,15.636543 C21.5429396,12.9016895 21.5429396,8.4675293 18.802919,5.73267578 L18.802919,5.70850586 C17.2635611,4.99210938 15.5908559,4.5262207 13.8416296,4.5262207 C12.0924032,4.5262207 10.4198057,4.99210937 8.88044771,5.70850586 L8.88044771,5.73267578 C6.14021188,8.46763672 6.14021188,12.9016895 8.88034008,15.636543 Z" id="Shape" fill="#3A9CB4"></path>
                <ellipse id="Oval" fill="#342E30" cx="13.8419524" cy="10.3582617" rx="2.95817611" ry="2.95259766"></ellipse>
                <g id="Group" opacity="0.1" transform="translate(7.533738, 31.367187)" fill="#000000">
                    <path d="M0.843671053,13.2500586 C0.752189946,13.2500586 0.659309717,13.2346973 0.568259109,13.2024707 C0.139481781,13.0506836 -0.0847007422,12.5806055 0.0673731444,12.1527441 C0.186083333,11.8187695 3.04180061,3.92992187 8.83815115,0.175957031 C9.21968117,-0.0711132813 9.72982287,0.0371679687 9.97757524,0.418085937 C10.22522,0.799003906 10.1166265,1.30818359 9.73498887,1.55536133 C4.40250135,5.00886719 1.64719804,12.6260449 1.61996896,12.7026367 C1.5000749,13.0395117 1.18258165,13.2500586 0.843671053,13.2500586 Z" id="Shape"></path>
                </g>
                <path d="M48.797529,8.13419922 C48.3528232,8.13419922 47.9081174,7.96479492 47.5688839,7.62620117 C43.1448576,3.210625 35.9462632,3.21051758 31.5220216,7.62620117 C30.8433394,8.30360352 29.7431984,8.30349609 29.0646238,7.62620117 C28.3859416,6.94879883 28.3859416,5.85073242 29.0646238,5.1734375 C34.8437544,-0.594902344 44.2471511,-0.594902344 50.0262817,5.1734375 C50.7049639,5.85083984 50.7049639,6.94890625 50.0262817,7.62620117 C49.6869406,7.96490234 49.2422348,8.13419922 48.797529,8.13419922 Z" id="Shape" fill="#342E30"></path>
                <path d="M28.5555584,31.9245996 C28.5555584,33.1907812 27.5272031,34.2170898 26.2587368,34.2170898 C24.990163,34.2170898 23.9619153,33.1906738 23.9619153,31.9245996 C23.9619153,30.6585254 26.2587368,27.4914063 26.2587368,27.4914063 C26.2587368,27.4914063 28.5555584,30.6585254 28.5555584,31.9245996 Z" id="Shape" fill="#65CDEF"></path>
                <g id="Group" transform="translate(46.171053, 16.435547)" fill="#342E30">
                    <path d="M0.356991565,6.25055664 C0.356991565,5.79648437 0.725821862,5.42834961 1.18075202,5.42834961 L6.10060594,5.42834961 C6.5555361,5.42834961 6.9243664,5.79648437 6.9243664,6.25055664 C6.9243664,6.70462891 6.5555361,7.07276367 6.10060594,7.07276367 L1.18075202,7.07276367 C0.725821862,7.07265625 0.356991565,6.70462891 0.356991565,6.25055664 Z" id="Shape"></path>
                    <path d="M0.0470320513,9.4830957 C0.0470320513,9.36686523 0.0718933873,9.24891602 0.124199055,9.13666016 C0.316201754,8.72501953 0.806109987,8.54669922 1.21852834,8.73833984 L5.81938225,10.8761426 C6.23180061,11.0677832 6.41056545,11.556875 6.21845513,11.9684082 C6.02645243,12.3800488 5.5365442,12.5583691 5.12412584,12.3667285 L0.52327193,10.2289258 C0.2232139,10.0894922 0.0470320513,9.79290039 0.0470320513,9.4830957 Z" id="Shape"></path>
                    <path d="M0.356776316,2.87417969 C0.356776316,2.56426758 0.533065789,2.26767578 0.833123819,2.12834961 L5.12412584,0.134492188 C5.5365442,-0.0571484375 6.02645243,0.121279297 6.21845513,0.5328125 C6.41045783,0.944238281 6.23190823,1.4334375 5.81938225,1.62507813 L1.52838023,3.61893555 C1.11596188,3.81057617 0.626053644,3.63214844 0.434050945,3.22061523 C0.381637652,3.1084668 0.356776316,2.99041016 0.356776316,2.87417969 Z" id="Shape"></path>
                </g>
                <path d="M39.7511238,36.042832 C39.7511238,36.042832 30.9418161,29.8893848 30.9418161,22.2986328 C30.9418161,14.7078809 39.7511238,8.55443359 39.7511238,8.55443359 C39.7511238,8.55443359 48.5604315,14.7078809 48.5604315,22.2986328 C48.5604315,29.8893848 39.7511238,36.042832 39.7511238,36.042832 Z" id="Shape" fill="#E3E3E3"></path>
                <path d="M33.4903721,22.2986328 C33.4903721,16.5256738 38.5850088,11.5848047 41.0255094,9.54905273 C40.2571758,8.90806641 39.7511238,8.55432617 39.7511238,8.55432617 C39.7511238,8.55432617 30.9418161,14.7077734 30.9418161,22.2985254 C30.9418161,29.8892773 39.7511238,36.0427246 39.7511238,36.0427246 C39.7511238,36.0427246 40.2569605,35.6890918 41.0255094,35.047998 C38.5851164,33.0125684 33.4903721,28.0715918 33.4903721,22.2986328 Z" id="Shape" fill="#000000" opacity="0.1"></path>
                <path d="M37.4292257,17.3468066 C34.6892051,20.0816602 34.6892051,24.5158203 37.4292257,27.2506738 C40.1692463,29.9855273 44.6117841,29.9855273 47.3518047,27.2506738 L47.3760202,27.2506738 C48.0937702,25.7142188 48.5605391,24.044668 48.5605391,22.2987402 C48.5605391,20.5528125 48.0937702,18.8833691 47.3760202,17.3469141 L47.3518047,17.3469141 C44.6117841,14.6118457 40.1692463,14.6118457 37.4292257,17.3468066 Z" id="Shape" fill="#3A9CB4"></path>
                <ellipse id="Oval" fill="#342E30" cx="42.7173718" cy="22.2983105" rx="2.95817611" ry="2.95259766"></ellipse>
                <path d="M51.8672045,41.4712891 C45.1729399,48.1529297 34.2839976,48.1580859 27.5830604,41.4869727 C27.3689946,41.6647559 27.1602024,41.852207 26.9594821,42.0526563 C26.9594821,42.4447461 26.9781012,42.8324316 27.0126488,43.215498 C30.599031,46.4912207 35.157696,48.1300488 39.7171144,48.1300488 C44.3517625,48.1300488 48.9856572,46.4367578 52.5981923,43.0521094 C52.6236994,42.7222168 52.6368296,42.3889941 52.6368296,42.0526563 C52.409526,41.8257813 52.172859,41.6138379 51.9286582,41.4158594 C51.9075638,41.4330469 51.8870074,41.4515234 51.8672045,41.4712891 Z" id="Shape" fill="#CD315B"></path>
            </g>
        </g>
    </g>
</svg>