<?xml version="1.0" encoding="UTF-8"?>
<svg width="66px" height="66px" viewBox="0 0 66 66" version="1.1" xmlns="http://www.w3.org/2000/svg" xmlns:xlink="http://www.w3.org/1999/xlink">
    <!-- Generator: Sketch 51.3 (57544) - http://www.bohemiancoding.com/sketch -->
    <title>icon3</title>
    <desc>Created with Sketch.</desc>
    <defs></defs>
    <g id="Page-1" stroke="none" stroke-width="1" fill="none" fill-rule="evenodd">
        <g id="Artboard" transform="translate(-407.000000, -240.000000)" fill-rule="nonzero">
            <g id="icon3" transform="translate(407.000000, 240.000000)">
                <path d="M32.99994,65.99994 C14.80374,65.99994 0,51.19632 0,33 C0,14.80368 14.80374,6e-05 32.99994,6e-05 C51.19614,6e-05 66,14.80368 66,33 C66,51.19632 51.19614,65.99994 32.99994,65.99994 Z M32.99994,2.95062 C16.4307,2.95062 2.95056,16.43076 2.95056,33 C2.95056,49.56924 16.43064,63.04938 32.99994,63.04938 C49.56936,63.04938 63.04944,49.5693 63.04944,33 C63.04944,16.4307 49.5693,2.95062 32.99994,2.95062 Z" id="Shape" fill="#0B1153"></path>
                <path d="M32.99994,51.47844 C32.69346,51.47844 32.38698,51.3831 32.1273,51.19278 C31.43358,50.68392 15.13266,38.6166 14.55108,28.73832 C14.54778,28.68048 14.54778,28.62264 14.55108,28.56474 C14.88432,22.90494 19.42614,18.47136 24.89094,18.47136 C28.09014,18.47136 31.06224,20.00784 32.99994,22.5366 C34.93776,20.00778 37.90974,18.47136 41.10894,18.47136 C46.57386,18.47136 51.11544,22.90494 51.4488,28.56474 C51.4521,28.62258 51.4521,28.68042 51.4488,28.73832 C50.86722,38.61654 34.5663,50.68392 33.87258,51.19278 C33.6129,51.3831 33.30642,51.47844 32.99994,51.47844 Z M17.50236,28.65072 C17.97486,35.27838 28.1265,44.4012 32.99964,48.15624 C37.87248,44.39874 48.02544,35.27178 48.49764,28.65072 C48.21528,24.59016 44.9859,21.42192 41.10894,21.42192 C38.20452,21.42192 35.55378,23.22672 34.35582,26.01972 C34.12332,26.56188 33.58992,26.91342 32.99994,26.91342 C32.40984,26.91342 31.87662,26.56188 31.64406,26.01972 C30.44622,23.22672 27.79548,21.42192 24.89094,21.42192 C21.01398,21.42192 17.7846,24.59016 17.50236,28.65072 Z" id="Shape" fill="#028DFF"></path>
            </g>
        </g>
    </g>
</svg>