<?xml version="1.0" encoding="UTF-8"?>
<svg width="66px" height="66px" viewBox="0 0 66 66" version="1.1" xmlns="http://www.w3.org/2000/svg" xmlns:xlink="http://www.w3.org/1999/xlink">
    <!-- Generator: Sketch 51.3 (57544) - http://www.bohemiancoding.com/sketch -->
    <title>icon2</title>
    <desc>Created with Sketch.</desc>
    <defs></defs>
    <g id="Page-1" stroke="none" stroke-width="1" fill="none" fill-rule="evenodd">
        <g id="Artboard" transform="translate(-257.000000, -240.000000)" fill-rule="nonzero">
            <g id="icon2" transform="translate(257.000000, 240.000000)">
                <path d="M33,66 C14.80362,66 0,51.19638 0,33 C0,14.80362 14.80362,0 33,0 C51.19638,0 66,14.80362 66,33 C66,51.19638 51.19638,66 33,66 Z M33,2.95056 C16.4307,2.95056 2.95056,16.4307 2.95056,33 C2.95056,49.5693 16.4307,63.04944 33,63.04944 C49.5693,63.04944 63.04944,49.5693 63.04944,33 C63.04944,16.4307 49.5693,2.95056 33,2.95056 Z" id="Shape" fill="#0B1153"></path>
                <g id="Group" transform="translate(12.000000, 19.500000)" fill="#028DFF">
                    <path d="M38.35086,26.98758 L3.64914,26.98758 C1.6581,26.98758 0.03816,25.36794 0.03816,23.3769 L0.03816,3.6234 C0.03816,1.63236 1.6581,0.01272 3.64914,0.01272 L38.35092,0.01272 C40.34196,0.01272 41.9616,1.63236 41.9616,3.6234 L41.9616,23.3769 C41.96154,25.36794 40.3419,26.98758 38.35086,26.98758 Z M3.64914,2.96328 C3.28494,2.96328 2.98878,3.25944 2.98878,3.6234 L2.98878,23.3769 C2.98878,23.74086 3.28494,24.03702 3.64914,24.03702 L38.35092,24.03702 C38.71488,24.03702 39.01104,23.74086 39.01104,23.3769 L39.01104,3.6234 C39.01104,3.25944 38.71488,2.96328 38.35092,2.96328 L3.64914,2.96328 Z" id="Shape"></path>
                    <path d="M21,16.66602 C20.7336,16.66602 20.4672,16.59414 20.23134,16.45002 L1.27872,4.88268 C0.58338,4.45812 0.36354,3.55038 0.78804,2.85474 C1.2123,2.1594 2.12034,1.93896 2.81598,2.36406 L21.01044,13.46886 L39.73302,2.3547 C40.43442,1.93896 41.33916,2.16984 41.7549,2.87016 C42.17088,3.57102 41.94006,4.47606 41.23944,4.89204 L21.75324,16.45938 C21.52098,16.59714 21.26034,16.66602 21,16.66602 Z" id="Shape"></path>
                    <g transform="translate(2.100000, 10.800000)" id="Shape">
                        <path d="M36.29964,16.18758 C35.9079,16.18758 35.51724,16.03278 35.22684,15.72558 L22.74456,2.51406 C22.185,1.92174 22.21146,0.98808 22.80378,0.42828 C23.3961,-0.13068 24.32946,-0.10482 24.88956,0.4875 L37.37184,13.69902 C37.9314,14.29134 37.90494,15.225 37.31262,15.7848 C37.0275,16.05396 36.6633,16.18758 36.29964,16.18758 Z"></path>
                        <path d="M1.50006,16.18758 C1.1364,16.18758 0.7722,16.05396 0.48708,15.7848 C-0.10524,15.225 -0.1317,14.29134 0.42786,13.69902 L12.91038,0.4875 C13.47048,-0.10482 14.40384,-0.13074 14.99616,0.42828 C15.58848,0.98808 15.61494,1.92174 15.05538,2.51406 L2.57286,15.72558 C2.28252,16.03272 1.89186,16.18758 1.50006,16.18758 Z"></path>
                    </g>
                </g>
            </g>
        </g>
    </g>
</svg>