<?xml version="1.0" encoding="UTF-8"?>
<svg width="66px" height="66px" viewBox="0 0 66 66" version="1.1" xmlns="http://www.w3.org/2000/svg" xmlns:xlink="http://www.w3.org/1999/xlink">
    <!-- Generator: Sketch 51.3 (57544) - http://www.bohemiancoding.com/sketch -->
    <title>icon4</title>
    <desc>Created with Sketch.</desc>
    <defs></defs>
    <g id="Page-1" stroke="none" stroke-width="1" fill="none" fill-rule="evenodd">
        <g id="Artboard" transform="translate(-557.000000, -240.000000)" fill-rule="nonzero">
            <g id="icon4" transform="translate(557.000000, 240.000000)">
                <path d="M33,66 C14.80374,66 0,51.19638 0,33 C0,14.80362 14.80374,0 33,0 C51.19626,0 66,14.80362 66,33 C66,51.19638 51.19626,66 33,66 Z M33,2.95056 C16.4307,2.95056 2.95056,16.4307 2.95056,33 C2.95056,49.5693 16.4307,63.04944 33,63.04944 C49.5693,63.04944 63.04944,49.5693 63.04944,33 C63.04944,16.4307 49.5693,2.95056 33,2.95056 Z" id="Shape" fill="#0B1153"></path>
                <path d="M44.27106,47.62122 C43.85628,47.62122 43.44414,47.4474 43.15242,47.10852 L31.83366,33.96258 C31.60308,33.6948 31.47636,33.35316 31.47636,33 L31.47636,14.6091 C31.47636,13.79418 32.13684,13.13382 32.95164,13.13382 C33.76644,13.13382 34.42692,13.79418 34.42692,14.6091 L34.42692,32.45232 L45.38832,45.18336 C45.92004,45.80076 45.85044,46.7322 45.23292,47.26392 C44.9544,47.50386 44.61186,47.62122 44.27106,47.62122 Z" id="Shape" fill="#028DFF"></path>
                <g id="Group" transform="translate(5.880000, 6.000000)" fill="#028DFF">
                    <g transform="translate(7.560000, 7.440000)" id="Shape">
                        <path d="M37.84344,39.07296 C37.5288,39.07296 37.21422,38.95284 36.97422,38.7129 L35.84466,37.58364 C35.36448,37.10346 35.36436,36.32514 35.84436,35.84496 C36.32454,35.36448 37.1031,35.36478 37.58304,35.84466 L38.7126,36.97392 C39.19278,37.4541 39.1929,38.23242 38.7129,38.7126 C38.47284,38.95284 38.15808,39.07296 37.84344,39.07296 Z"></path>
                        <path d="M2.40594,3.63564 C2.0913,3.63564 1.77654,3.51552 1.5366,3.27528 L0.40704,2.14572 C-0.07302,1.66554 -0.0729,0.88722 0.40716,0.40704 C0.88734,-0.0729 1.6659,-0.07314 2.14584,0.40734 L3.2754,1.5369 C3.75546,2.01708 3.75534,2.7954 3.27528,3.27558 C3.03522,3.51552 2.72058,3.63564 2.40594,3.63564 Z"></path>
                    </g>
                    <g transform="translate(0.000000, 25.800000)" id="Shape">
                        <path d="M52.89012,2.48052 L51.41484,2.48052 C50.73588,2.48052 50.18544,1.93008 50.18544,1.251 C50.18544,0.57192 50.73588,0.02148 51.41484,0.02148 L52.89012,0.02148 C53.56908,0.02148 54.11952,0.57192 54.11952,1.251 C54.11952,1.93008 53.56908,2.48052 52.89012,2.48052 Z"></path>
                        <path d="M2.9745,2.48052 L1.25316,2.48052 C0.5742,2.48052 0.02376,1.93008 0.02376,1.251 C0.02376,0.57192 0.5742,0.02148 1.25316,0.02148 L2.9745,0.02148 C3.65346,0.02148 4.2039,0.57192 4.2039,1.251 C4.2039,1.93008 3.65346,2.48052 2.9745,2.48052 Z"></path>
                    </g>
                    <g transform="translate(7.560000, 7.440000)" id="Shape">
                        <path d="M36.71388,3.63564 C36.39924,3.63564 36.08466,3.51552 35.84454,3.27558 C35.36436,2.7954 35.36436,2.01684 35.84454,1.53666 L36.9741,0.4071 C37.45428,-0.07284 38.2326,-0.07284 38.71278,0.4071 C39.19296,0.88728 39.19296,1.66584 38.71278,2.14602 L37.58322,3.27558 C37.34316,3.51552 37.02852,3.63564 36.71388,3.63564 Z"></path>
                        <path d="M1.27656,39.07296 C0.96192,39.07296 0.64716,38.95284 0.4071,38.7126 C-0.07296,38.23242 -0.07284,37.4541 0.40722,36.97392 L1.5366,35.84466 C2.01678,35.36472 2.79522,35.36448 3.2754,35.84496 C3.75546,36.32514 3.75534,37.10346 3.27528,37.58364 L2.1459,38.7129 C1.90578,38.95284 1.5912,39.07296 1.27656,39.07296 Z"></path>
                    </g>
                    <g transform="translate(25.800000, 0.000000)" id="Shape">
                        <path d="M1.27164,3.9375 C0.59268,3.9375 0.04224,3.38706 0.04224,2.70798 L0.04224,1.2327 C0.04224,0.55362 0.59268,0.00318 1.27164,0.00318 C1.9506,0.00318 2.50104,0.55362 2.50104,1.2327 L2.50104,2.70798 C2.50104,3.38706 1.9506,3.9375 1.27164,3.9375 Z"></path>
                        <path d="M1.27164,54.09882 C0.59268,54.09882 0.04224,53.54838 0.04224,52.8693 L0.04224,51.14826 C0.04224,50.46918 0.59268,49.91874 1.27164,49.91874 C1.9506,49.91874 2.50104,50.46918 2.50104,51.14826 L2.50104,52.8693 C2.50104,53.54838 1.9506,54.09882 1.27164,54.09882 Z"></path>
                    </g>
                </g>
            </g>
        </g>
    </g>
</svg>