<?xml version="1.0" encoding="UTF-8"?>
<svg width="48px" height="48px" viewBox="0 0 48 48" version="1.1" xmlns="http://www.w3.org/2000/svg" xmlns:xlink="http://www.w3.org/1999/xlink">
    <!-- Generator: Sketch 51.3 (57544) - http://www.bohemiancoding.com/sketch -->
    <title>icon_ideation</title>
    <desc>Created with Sketch.</desc>
    <defs></defs>
    <g id="Page-1" stroke="none" stroke-width="1" fill="none" fill-rule="evenodd">
        <g id="Artboard-5" transform="translate(-125.000000, -117.000000)" fill-rule="nonzero">
            <g id="icon_ideation" transform="translate(125.000000, 117.000000)">
                <path d="M14,30 C13.8685461,30.0004246 13.7383318,29.9745857 13.617,29.924 C13.2434093,29.7691037 12.9998982,29.4044291 13,29 L13,24 L12,24 C8.86684205,24.0025667 6.25920333,21.5939344 6.01355426,18.47042 C5.76790519,15.3469057 7.96696005,12.5602505 11.062,12.073 C11.4642127,9.15266073 13.6452374,6.79317763 16.525,6.163 C18.6384442,2.35884153 22.648188,-0.000492804369 27,-0.000492804369 C31.351812,-0.000492804369 35.3615558,2.35884153 37.475,6.163 C40.3547626,6.79317763 42.5357873,9.15266073 42.938,12.073 C46.0330399,12.5602505 48.2320948,15.3469057 47.9864457,18.47042 C47.7407967,21.5939344 45.1331579,24.0025667 42,24 L40,24 L40,22 L42,22 C44.209139,22 46,20.209139 46,18 C46,15.790861 44.209139,14 42,14 C41.4477153,14 41,13.5522847 41,13 C40.9918215,10.5071129 39.1527489,8.39916751 36.684,8.053 C36.3582347,8.00839882 36.075211,7.80650608 35.927,7.513 C34.2346162,4.13383297 30.7792768,1.99989778 27,1.99989778 C23.2207232,1.99989778 19.7653838,4.13383297 18.073,7.513 C17.924789,7.80650608 17.6417653,8.00839882 17.316,8.053 C14.8472511,8.39916751 13.0081785,10.5071129 13,13 C13,13.5522847 12.5522847,14 12,14 C9.790861,14 8,15.790861 8,18 C8,20.209139 9.790861,22 12,22 L14,22 C14.5522847,22 15,22.4477153 15,23 L15,26.586 L19.293,22.293 C19.4804927,22.1054506 19.7348052,22.0000566 20,22 L23,22 L23,24 L20.414,24 L14.707,29.707 C14.5195073,29.8945494 14.2651948,29.9999434 14,30 Z" id="Shape" fill="#009FDA"></path>
                <path d="M33,48 L3,48 C1.34314575,48 2.02906125e-16,46.6568542 0,45 L0,9 C5.66374055e-05,8.73480519 0.105450625,8.48049273 0.293,8.293 L8.293,0.293 L9.707,1.707 L2,9.414 L2,45 C2,45.5522847 2.44771525,46 3,46 L33,46 C33.5522847,46 34,45.5522847 34,45 L34,29 L36,29 L36,45 C36,46.6568542 34.6568542,48 33,48 Z" id="Shape" fill="#000000"></path>
                <path d="M7,10 L1,10 L1,8 L7,8 C7.55228475,8 8,7.55228475 8,7 L8,1 C8,0.44771525 8.44771525,1.01453063e-16 9,0 L18,0 L18,2 L10,2 L10,7 C10,8.65685425 8.65685425,10 7,10 Z" id="Shape" fill="#000000"></path>
                <path d="M18,18 L16,18 C16,15.790861 14.209139,14 12,14 C9.790861,14 8,15.790861 8,18 L6,18 C6,14.6862915 8.6862915,12 12,12 C15.3137085,12 18,14.6862915 18,18 Z" id="Shape" fill="#009FDA"></path>
                <path d="M19.5,40.834 C19.2348052,40.8339434 18.9804927,40.7285494 18.793,40.541 L14.461,36.209 C14.0706181,35.8185001 14.0706181,35.1854999 14.461,34.795 L31.066,18.195 C32.6527141,16.608286 35.2252859,16.608286 36.812,18.195 C38.398714,19.7817141 38.398714,22.3542859 36.812,23.941 L20.2,40.541 C20.0142258,40.726844 19.7627669,40.8320976 19.5,40.834 Z M16.58,35.5 L19.5,38.42 L35.4,22.52 C35.9216078,21.998035 36.1251282,21.237445 35.9338971,20.5247369 C35.742666,19.8120288 35.1857359,19.2554799 34.4728971,19.0647369 C33.7600582,18.8739938 32.9996078,19.078035 32.478,19.6 L16.58,35.5 Z" id="Shape" fill="#000000"></path>
                <path d="M13,43 C12.6785564,43.0000774 12.3766717,42.8456288 12.1886576,42.5849053 C12.0006435,42.3241819 11.9494238,41.9889726 12.051,41.684 L14.217,35.184 L16.117,35.816 L14.583,40.416 L19.183,38.883 L19.816,40.783 L13.316,42.949 C13.2141433,42.9830806 13.1074066,43.0003071 13,43 Z" id="Shape" fill="#000000"></path>
                <rect id="Rectangle-path" fill="#000000" transform="translate(32.492873, 22.506832) rotate(-45.000000) translate(-32.492873, -22.506832) " x="31.492873" y="19.4438317" width="2" height="6.126"></rect>
                <rect id="Rectangle-path" fill="#000000" transform="translate(29.604873, 25.395080) rotate(-45.000000) translate(-29.604873, -25.395080) " x="28.604873" y="22.3320805" width="2" height="6.126"></rect>
                <path d="M9,44 L7,44 C5.34314575,44 4,42.6568542 4,41 L4,39 L6,39 L6,41 C6,41.5522847 6.44771525,42 7,42 L9,42 L9,44 Z" id="Shape" fill="#000000"></path>
                <rect id="Rectangle-path" fill="#000000" x="4" y="35" width="2" height="2"></rect>
                <rect id="Rectangle-path" fill="#009FDA" x="34" y="12" width="8" height="2"></rect>
                <rect id="Rectangle-path" fill="#009FDA" x="30" y="12" width="2" height="2"></rect>
            </g>
        </g>
    </g>
</svg>