<?xml version="1.0" encoding="UTF-8"?>
<svg width="66px" height="62px" viewBox="0 0 66 62" version="1.1" xmlns="http://www.w3.org/2000/svg" xmlns:xlink="http://www.w3.org/1999/xlink">
    <!-- Generator: Sketch 51.3 (57544) - http://www.bohemiancoding.com/sketch -->
    <title>icon5</title>
    <desc>Created with Sketch.</desc>
    <defs></defs>
    <g id="Page-1" stroke="none" stroke-width="1" fill="none" fill-rule="evenodd">
        <g id="Artboard" transform="translate(-707.000000, -240.000000)" fill-rule="nonzero">
            <g id="icon5" transform="translate(707.000000, 240.000000)">
                <path d="M64.435842,50.7847831 C63.6051771,50.7847831 62.9315695,50.1162303 62.9315695,49.291547 L62.9315695,8.50411516 C62.9315695,7.0680595 62.3319346,5.68198464 61.2428447,4.60114971 C60.2195749,3.58546833 58.7578038,3.00295393 57.2323106,3.00295393 L8.49008174,3.00295393 C6.99078474,3.00295393 5.64165123,3.55553935 4.58834877,4.60114971 C3.55488828,5.62694626 3.00848501,6.97666603 3.00848501,8.50411516 L3.00848501,49.291547 C3.00848501,50.1162303 2.33493733,50.7847831 1.50427248,50.7847831 C0.673607629,50.7847831 0,50.1162303 0,49.291547 L0,8.50411516 C0,6.20083301 0.87400545,4.06468906 2.46088283,2.48946065 C4.06724251,0.894894434 6.20837602,0.0164817658 8.49008174,0.0164817658 L57.2323706,0.0164817658 C59.5501035,0.0164817658 61.7872698,0.917980806 63.3703706,2.48946065 C65.027624,4.13430518 65.9401144,6.27038964 65.9401144,8.50411516 L65.9401144,49.291547 C65.9400545,50.1162303 65.2668065,50.7847831 64.435842,50.7847831 Z" id="Shape" fill="#0B1153"></path>
                <g id="Group" transform="translate(6.474114, 6.128599)" fill="#028DFF">
                    <path d="M51.6936458,23.2538676 C51.0011553,23.2538676 50.4399455,22.6967601 50.4399455,22.0095835 L50.4399455,10.7123743 L42.858218,2.59816891 L4.37212534,2.59816891 C3.66422888,2.59816891 3.39279564,2.76019002 3.20480654,2.93536084 C2.74742234,3.36174472 2.55217984,3.6453858 2.55217984,3.88303263 L2.55217984,11.5572284 C2.55217984,12.244405 1.99091008,12.8015125 1.29847956,12.8015125 C0.605989101,12.8015125 0.0447792916,12.244405 0.0447792916,11.5572284 L0.0447792916,3.88303263 C0.0447792916,2.62821689 0.81639782,1.74795969 1.48850681,1.12123608 C2.46178202,0.214381958 3.60026703,0.109600768 4.37218529,0.109600768 L43.4052807,0.109600768 C43.7541635,0.109600768 44.0872807,0.253831094 44.3244251,0.507721689 L52.6128501,9.37800576 C52.8278747,9.60815547 52.9474659,9.91042035 52.9474659,10.2241689 L52.9474659,22.0095835 C52.947406,22.6967601 52.3861362,23.2538676 51.6936458,23.2538676 Z" id="Shape"></path>
                    <path d="M46.348485,11.4808887 C46.3475858,11.4808887 46.3467466,11.4808887 46.3458474,11.4808887 C45.2879292,11.4808887 44.3030245,11.1027006 43.5724687,10.4159405 C42.8188937,9.70764107 42.4013733,8.73253935 42.3952589,7.66759117 L42.1525995,1.33514203 C42.1313787,0.813556622 42.4403379,0.334335893 42.9265559,0.134888676 C43.4121744,-0.0640825336 43.9722452,0.0586679463 44.3280817,0.443044146 L52.6045777,9.38217083 C52.9409319,9.74530518 53.0293515,10.2711152 52.8300926,10.722906 C52.6310736,11.1747562 52.181842,11.467144 51.6851935,11.468453 L46.348485,11.4808887 Z M44.7936785,4.62352207 L44.9016403,7.59827255 C44.9022398,7.61314779 44.9025395,7.62814203 44.9025395,7.64301727 C44.9025395,8.03262956 45.0386757,8.36660845 45.2965014,8.60889635 C45.5589428,8.85564683 45.9310845,8.99184453 46.3439292,8.99226104 L48.8339455,8.98708445 L44.7936785,4.62352207 Z" id="Shape"></path>
                </g>
                <path d="M57.2323706,61.9835182 L8.49008174,61.9835182 C6.26808174,61.9835182 4.1266485,61.0729155 2.46088283,59.4195624 C0.897024523,57.8671228 0,55.6416679 0,53.3136334 L0,20.48862 C0,19.4336679 0.375019074,18.4804626 1.05617984,17.8047102 C1.79087193,17.0757639 2.70240327,16.6903762 3.69282289,16.6903762 L20.1402507,16.6903762 C21.1623815,16.6903762 22.1923651,17.1069424 22.8952861,17.8047102 C23.6526376,18.5564453 24.0693188,19.5096507 24.0693188,20.48862 L24.0693188,27.1426718 L60.1020817,27.1426718 C61.6392044,27.1426718 63.1367629,27.7542226 64.2109264,28.8204203 C65.3098474,29.9114894 65.9400545,31.3839597 65.9400545,32.860119 L65.9400545,53.3137524 C65.9400545,55.5730038 65.0034659,57.7985182 63.3703106,59.4195029 C61.7287629,61.0489367 59.491297,61.9835182 57.2323706,61.9835182 Z M3.69282289,19.6768484 C3.55374932,19.6768484 3.39573297,19.7058848 3.18304632,19.9166967 C3.03114441,20.0674722 3.00848501,20.3398081 3.00848501,20.4886795 L3.00848501,53.3136929 C3.00848501,54.8556008 3.58426158,56.3114107 4.58834877,57.3079328 C5.36488283,58.0785893 6.67187466,58.9972246 8.49008174,58.9972246 L57.2323706,58.9972246 C58.6993569,58.9972246 60.1611281,58.3815086 61.2429046,57.3079328 C62.3159292,56.2426871 62.9316294,54.7869962 62.9316294,53.3138714 L62.9316294,32.860119 C62.9316294,32.1699079 62.6223706,31.4670825 62.0835204,30.9319309 C61.5769809,30.4292668 60.8361744,30.1290845 60.1021417,30.1290845 L22.5650463,30.1290845 C21.7343815,30.1290845 21.0608338,29.4605317 21.0608338,28.6358484 L21.0608338,20.48862 C21.0608338,20.3149367 20.9484959,20.0957351 20.7678202,19.9163397 C20.6258093,19.775382 20.3677439,19.6767889 20.1402507,19.6767889 L3.69282289,19.6767889 L3.69282289,19.6768484 Z" id="Shape" fill="#0B1153"></path>
            </g>
        </g>
    </g>
</svg>