<?xml version="1.0" encoding="UTF-8"?>
<svg width="66px" height="66px" viewBox="0 0 66 66" version="1.1" xmlns="http://www.w3.org/2000/svg" xmlns:xlink="http://www.w3.org/1999/xlink">
    <!-- Generator: Sketch 51.3 (57544) - http://www.bohemiancoding.com/sketch -->
    <title>UX-UI-Icon_1</title>
    <desc>Created with Sketch.</desc>
    <defs></defs>
    <g id="Page-1" stroke="none" stroke-width="1" fill="none" fill-rule="evenodd">
        <g id="Artboard" transform="translate(-107.000000, -240.000000)" fill-rule="nonzero">
            <g id="UX-UI-Icon_1" transform="translate(107.000000, 240.000000)">
                <path d="M33,66 C14.80362,66 0,51.19638 0,33 C0,14.80362 14.80362,0 33,0 C51.19638,0 66,14.80362 66,33 C66,51.19638 51.19638,66 33,66 Z M33,2.95056 C16.4307,2.95056 2.95056,16.4307 2.95056,33 C2.95056,49.5693 16.4307,63.04944 33,63.04944 C49.5693,63.04944 63.04944,49.5693 63.04944,33 C63.04944,16.4307 49.5693,2.95056 33,2.95056 Z" id="Shape" fill="#0B1153"></path>
                <g id="Group" transform="translate(16.380000, 16.140000)" fill="#028DFF">
                    <path d="M20.7252,22.18758 L1.49544,22.18758 C0.68052,22.18758 0.02016,21.52722 0.02016,20.7123 L0.02016,1.48254 C0.02016,0.66762 0.68052,0.00726 1.49544,0.00726 L20.7252,0.00726 C21.54012,0.00726 22.20048,0.66762 22.20048,1.48254 L22.20048,20.7123 C22.20048,21.52722 21.54012,22.18758 20.7252,22.18758 Z M2.97072,19.23702 L19.24992,19.23702 L19.24992,2.95782 L2.97072,2.95782 L2.97072,19.23702 Z" id="Shape"></path>
                    <path d="M31.74456,33.71304 L12.5148,33.71304 C11.69988,33.71304 11.03952,33.05268 11.03952,32.23776 L11.03952,13.008 C11.03952,12.19308 11.69988,11.53272 12.5148,11.53272 L31.74456,11.53272 C32.55948,11.53272 33.21984,12.19308 33.21984,13.008 L33.21984,32.23776 C33.21984,33.05268 32.55948,33.71304 31.74456,33.71304 Z M13.99008,30.76248 L30.26928,30.76248 L30.26928,14.48328 L13.99008,14.48328 L13.99008,30.76248 Z" id="Shape"></path>
                    <path d="M20.7252,19.59462 C19.91028,19.59462 19.24992,18.93426 19.24992,18.11934 L19.24992,8.6127 C19.24992,7.79778 19.91028,7.13742 20.7252,7.13742 C21.54012,7.13742 22.20048,7.79778 22.20048,8.6127 L22.20048,18.11934 C22.20048,18.9342 21.54012,19.59462 20.7252,19.59462 Z" id="Shape"></path>
                </g>
            </g>
        </g>
    </g>
</svg>